<svg xmlns="http://www.w3.org/2000/svg" viewBox="0 0 300 420" width="300" height="420">
  <rect width="300" height="420" fill="#2C1810"/>
  <rect x="20" y="20" width="260" height="380" rx="12" fill="#3d2218" opacity="0.6"/>
  <!-- Ink drop shape -->
  <path d="M150 100 C150 100, 190 155, 190 195 C190 218, 172 235, 150 235 C128 235, 110 218, 110 195 C110 155, 150 100, 150 100Z" fill="#C0392B" opacity="0.8"/>
  <path d="M150 120 C150 120, 178 163, 178 195 C178 210, 165 222, 150 222 C135 222, 122 210, 122 195 C122 163, 150 120, 150 120Z" fill="#C0392B"/>
  <ellipse cx="141" cy="168" rx="7" ry="12" fill="white" opacity="0.25" transform="rotate(-20, 141, 168)"/>
  <!-- Pen nib -->
  <path d="M145 235 L150 280 L155 235" fill="#C0392B"/>
  <!-- Decorative dots -->
  <circle cx="80" cy="320" r="6" fill="#C0392B" opacity="0.5"/>
  <circle cx="150" cy="320" r="6" fill="#C0392B" opacity="0.7"/>
  <circle cx="220" cy="320" r="6" fill="#C0392B" opacity="0.5"/>
  <!-- Text -->
  <text x="150" y="365" text-anchor="middle" font-family="sans-serif" font-size="16" font-weight="bold" fill="#F5F0EB">기타</text>
  <text x="150" y="390" text-anchor="middle" font-family="sans-serif" font-size="12" fill="#9a7060">ETC</text>
</svg>
