<svg xmlns="http://www.w3.org/2000/svg" viewBox="0 0 300 420" width="300" height="420">
  <rect width="300" height="420" fill="#2C1810"/>
  <rect x="20" y="20" width="260" height="380" rx="8" fill="#3d2218"/>
  <!-- Film strip top -->
  <rect x="0" y="30" width="300" height="40" fill="#1a0f09"/>
  <rect x="10" y="35" width="35" height="30" rx="3" fill="#2C1810"/>
  <rect x="60" y="35" width="35" height="30" rx="3" fill="#2C1810"/>
  <rect x="110" y="35" width="35" height="30" rx="3" fill="#2C1810"/>
  <rect x="160" y="35" width="35" height="30" rx="3" fill="#2C1810"/>
  <rect x="210" y="35" width="35" height="30" rx="3" fill="#2C1810"/>
  <rect x="255" y="35" width="35" height="30" rx="3" fill="#2C1810"/>
  <!-- Film strip bottom -->
  <rect x="0" y="350" width="300" height="40" fill="#1a0f09"/>
  <rect x="10" y="355" width="35" height="30" rx="3" fill="#2C1810"/>
  <rect x="60" y="355" width="35" height="30" rx="3" fill="#2C1810"/>
  <rect x="110" y="355" width="35" height="30" rx="3" fill="#2C1810"/>
  <rect x="160" y="355" width="35" height="30" rx="3" fill="#2C1810"/>
  <rect x="210" y="355" width="35" height="30" rx="3" fill="#2C1810"/>
  <rect x="255" y="355" width="35" height="30" rx="3" fill="#2C1810"/>
  <!-- Camera icon -->
  <circle cx="150" cy="195" r="55" fill="none" stroke="#C0392B" stroke-width="4"/>
  <circle cx="150" cy="195" r="35" fill="#C0392B" opacity="0.3"/>
  <path d="M120 175 L130 165 L170 165 L180 175 L195 175 L195 215 L105 215 L105 175 Z" fill="none" stroke="#C0392B" stroke-width="3"/>
  <circle cx="150" cy="193" r="16" fill="none" stroke="#C0392B" stroke-width="3"/>
  <circle cx="150" cy="193" r="8" fill="#C0392B" opacity="0.6"/>
  <!-- Text -->
  <text x="150" y="270" text-anchor="middle" font-family="sans-serif" font-size="16" font-weight="bold" fill="#F5F0EB">영화</text>
  <text x="150" y="295" text-anchor="middle" font-family="sans-serif" font-size="12" fill="#9a7060">MOVIE</text>
</svg>
